<svg width="269" height="117" viewBox="0 0 269 117" fill="none" xmlns="http://www.w3.org/2000/svg">
<path d="M268.999 29.9453H234.331C233.728 29.9453 233.131 30.0535 232.572 30.2826C231.096 30.8745 228.351 32.3384 226.976 35.4252C226.8 35.8198 226.68 36.2462 226.611 36.679L221.266 70.494H233.797C234.79 70.494 235.77 70.2458 236.637 69.7621C238.276 68.852 240.713 66.9744 241.882 63.4548C241.988 63.1302 242.051 62.7993 242.095 62.4619L243.245 52.8832C243.27 52.6541 243.32 52.425 243.389 52.2086C243.559 51.6803 243.948 50.7638 244.727 50.0446C245.418 49.4018 246.341 49.0709 247.277 49.0709H259.388C260.142 49.0709 260.877 48.9054 261.562 48.5872C263.22 47.8107 266.078 46.0031 267.171 42.4072C267.246 42.1526 267.297 41.8916 267.334 41.6307L268.999 29.9453Z" fill="#341E53"/>
<path d="M237.492 8.54152C237.492 8.54152 231.393 8.96795 229.402 15.3771C229.364 15.498 229.339 15.6253 229.314 15.7526L227.63 26.7824C227.63 26.7824 227.128 29.5319 225.2 29.7483H211.688C211.531 29.7483 211.38 29.7674 211.236 29.7992C210.388 30.0029 207.548 30.843 205.614 33.3825C205.488 33.5479 205.293 33.6561 205.08 33.6561H185.733C185.35 33.6561 184.979 33.8089 184.734 34.108C184.414 34.4835 184.081 35.1582 184.043 36.3356H218.127C218.497 36.3356 218.836 36.5266 219.037 36.8448C219.289 37.2394 219.552 37.8695 219.552 38.7223H191.399C190.896 38.7223 190.419 38.9642 190.142 39.3906C189.916 39.7407 189.747 40.2498 189.835 40.9627H211.644C212.021 40.9627 212.373 41.16 212.574 41.4846C212.85 41.9365 213.189 42.6556 213.271 43.5721H198.038C197.523 43.5721 197.033 43.8776 196.851 44.3677C196.707 44.756 196.637 45.3288 196.763 46.1753H202.033C202.184 46.1753 202.303 46.2962 202.303 46.4489V49.3639H236.368C238.41 49.3639 240.395 48.632 241.908 47.2445C243.121 46.1307 244.327 44.4759 244.993 42.0574C245.043 41.8664 245.087 41.6628 245.112 41.4655L250.068 8.53516H237.492V8.54152ZM241.984 18.3302C240.231 18.3302 238.805 16.8918 238.805 15.1098C238.805 13.3277 240.225 11.8893 241.984 11.8893C243.736 11.8893 245.162 13.3277 245.162 15.1098C245.162 16.8918 243.736 18.3302 241.984 18.3302Z" fill="#8D53A0"/>
<path d="M0.251355 77.4886C0.609402 77.0749 1.21871 77.0113 1.65214 77.3422C3.19111 78.5197 4.81802 79.6526 6.44494 80.7409C8.34824 82.0138 10.2892 83.2358 12.2554 84.4133C14.2215 85.5907 16.2127 86.7173 18.2291 87.7992C20.2392 88.8876 22.2744 89.925 24.3347 90.9179C32.551 94.9085 41.075 98.1799 49.7686 100.713C58.4622 103.246 67.338 105.009 76.2641 105.957C85.1839 106.931 94.1602 107.008 103.036 106.346C120.8 104.939 138.143 100.248 154.262 92.8782C162.346 89.2504 170.116 84.9097 177.604 80.1299C182.522 76.9858 187.309 73.6253 191.964 70.0866C196.003 67.0125 201.744 67.8654 204.772 71.9578C207.981 76.2984 206.851 82.4721 202.334 85.3871C197.039 88.7985 191.618 92.0062 186.065 94.9785C177.579 99.5101 168.816 103.545 159.758 106.785C141.699 113.398 122.528 116.987 103.438 116.994C93.8963 116.962 84.3798 116.128 75.0643 114.365C65.7488 112.627 56.6218 110.05 47.8151 106.727C39.0084 103.399 30.5032 99.3446 22.4189 94.6093C20.3962 93.4255 18.3987 92.2035 16.4326 90.937C14.4602 89.6704 12.5192 88.3657 10.6159 87.01C8.70629 85.6544 6.82811 84.2605 4.98763 82.8158C3.41096 81.5683 1.86571 80.3081 0.35186 78.9525C-0.0752838 78.577 -0.119254 77.9214 0.251355 77.4886Z" fill="#8D53A0"/>
<path d="M28.1978 46.525L23.3359 69.5139H0L14.5857 0H39.5422C43.6503 0 47.3941 0.216396 50.7798 0.655551C54.1656 1.09471 57.0802 1.96665 59.53 3.28412C61.9798 4.59522 63.8894 6.47914 65.2525 8.92314C66.6218 11.3671 67.3065 14.6322 67.3065 18.7182C67.3065 22.5115 66.7098 26.1075 65.5226 29.4998C64.3354 32.8921 62.4258 35.8517 59.8001 38.3657C57.1682 40.886 53.7699 42.8718 49.5926 44.3293C45.4154 45.7868 40.34 46.5187 34.3599 46.5187H28.1978V46.525ZM34.6803 39.5177C36.8411 39.5177 38.6565 38.6075 40.1389 36.7809C41.6151 34.9606 42.84 32.733 43.8136 30.1044C44.7873 27.4759 45.4908 24.7391 45.9179 21.8941C46.3514 19.0492 46.5649 16.567 46.5649 14.4476C46.5649 12.4809 46.2383 10.8198 45.5913 9.47049C44.9443 8.1212 43.5373 7.44655 41.3764 7.44655H36.5145L29.7116 39.5177H34.6803Z" fill="#341E53"/>
<path d="M72.0601 26.4896C75.7348 24.6693 79.4974 23.3327 83.348 22.4926C87.1986 21.6525 91.5077 21.2324 96.2566 21.2324C100.867 21.2324 104.68 21.6016 107.708 22.3271C110.729 23.0591 113.141 24.1156 114.944 25.5031C116.747 26.8905 118.003 28.5326 118.726 30.4292C119.442 32.3259 119.806 34.4771 119.806 36.8893C119.806 38.2768 119.718 39.7724 119.536 41.3763C119.354 42.9802 119.159 44.3295 118.939 45.4242L113.864 69.5077H96.4701L94.5291 62.5003H93.8821C91.5768 65.0525 88.8946 67.0065 85.8355 68.3557C82.7764 69.705 79.7299 70.3797 76.7084 70.3797C74.981 70.3797 73.285 70.1251 71.633 69.6159C69.9747 69.1068 68.4985 68.3239 67.2045 67.261C65.9105 66.2045 64.8615 64.8552 64.07 63.2132C63.2785 61.5711 62.8828 59.5854 62.8828 57.2496C62.8828 53.4563 63.9067 50.4458 65.9608 48.2182C68.0148 45.9906 70.7159 44.3167 74.0639 43.1838C77.412 42.0509 81.1935 41.3445 85.4084 41.0517C89.6233 40.7589 93.8507 40.6126 98.1033 40.6126C98.2478 39.887 98.43 38.8432 98.6435 37.4939C98.8571 36.1446 98.9639 34.9608 98.9639 33.9361C98.9639 32.625 98.6247 31.403 97.94 30.2701C97.2553 29.1372 95.8357 28.5708 93.6748 28.5708C91.156 28.5708 89.2966 29.3218 88.1094 30.8175C86.9222 32.3131 86.1433 34.1207 85.7853 36.2337H70.0123L72.0601 26.4896ZM96.9098 45.7551H94.9626C92.8708 45.7551 91.0869 46.0288 89.617 46.5762C88.1408 47.1235 86.9536 47.8363 86.0491 48.7083C85.1445 49.5866 84.485 50.5668 84.0515 51.6615C83.6181 52.7562 83.4046 53.8509 83.4046 54.9456C83.4046 56.6958 83.8505 58.0069 84.7551 58.8853C85.6533 59.7636 86.7149 60.1964 87.9398 60.1964C89.4537 60.1964 90.9487 59.649 92.4248 58.5543C93.901 57.4596 94.8181 56.0021 95.1824 54.1755L96.9098 45.7551Z" fill="#341E53"/>
<path d="M148.871 22.4414L152.112 54.6207L169.179 22.4414H180.63L154.593 69.5075C151.999 74.1027 149.373 77.6414 146.71 80.1236C144.046 82.6058 141.144 84.426 138.01 85.5971C134.875 86.7618 131.42 87.4365 127.639 87.621C123.858 87.7992 119.555 87.8947 114.73 87.8947L116.351 80.34C118.726 80.34 120.943 80.3018 122.997 80.2318C125.051 80.1554 126.684 79.939 127.915 79.5762C129.574 79.1371 130.761 78.3542 131.483 77.2213C132.199 76.0884 132.564 74.4273 132.564 72.2442C132.564 70.7867 132.438 69.1065 132.187 67.2098C131.936 65.3132 131.665 63.3084 131.377 61.1889L126.081 22.4414H148.871Z" fill="#341E53"/>
</svg>
